<svg xmlns="http://www.w3.org/2000/svg" width="386" height="386"><path fill-rule="evenodd" d="M21.505 216.61c12.097-1.485 21.904 6.773 24.973 13.905.735 2.09 1.254 4.236 1.461 5.82 10.919 11.399 22.047 23.095 32.966 34.494 3.066 3.134 14.661 15.311 15.819 16.603 1.054 1.177.813 2.576.831 2.811-.114 1.13-4.483 6.021-7.657 8.37-1.03.762-2.34.614-3.409.307-14.879-15.358-29.694-30.568-44.572-45.926-8.046 5.775-17.307 6.064-24.545 1.775-8.165-4.837-13.358-15.63-9.663-26.246 2.638-7.577 9.295-11.382 13.796-11.913z"/></svg>