<svg xmlns="http://www.w3.org/2000/svg" width="320" height="342"><path fill-rule="evenodd" d="M223.144 108.204c0 5.628.005 21.903.005 21.903s.34-.079.34.634c0 4.461-.278 20.411-.278 33.364 0 .599-.337.559-.337.949 0 1.789-.315 9.362-2.531 14.631-3.159 7.51-7.921 10.751-9.793 12.192-3.596 2.767-7.946 6.149-10.521 12.124-1.269 2.946-2.721 8.974-3.354 14.308-.828 6.974-.915 13.275-3.873 15.336-4.141 2.884-18.819 4.533-32.286 4.508-15.471-.029-34.087-2.876-35.284-6.435-1.031-3.065-1.806-11.904-2.99-19.134-.558-3.408-1.641-6.478-2.374-8.265-1.899-4.629-4.611-8.615-7.801-10.607-3.305-2.063-8.453-5.416-11.745-12.597-2.624-5.723-3.811-13.04-3.811-21.671 0-18.279-.121-59.636-.082-63.185 0-4.3.137-19.901 3.077-27.051 2.735-6.65 6.529-10.482 12.477-14.051 2.457-1.475 5.671-6.055 7.241-8.631 4.025-6.607 5.112-24.393 5.433-26.748.4-2.935 4.572-6.032 9.955-6.964 5.97-1.032 14.293-1.934 22.948-1.843 12.872.134 22.75.588 29.582 2.367 4.831 1.257 7.371 3.498 7.828 5.93.502 2.665 1.717 11.143 2.448 15.34 1.425 8.18 2.957 11.401 6.735 17.091.913 1.375 6.178 4.659 8.613 6.901 3.443 3.17 6.694 6.448 9.096 15.852.628 2.459.867 6.122.867 9.39 1.41-.22 2.523-.163 4.18.061.481.128 1.57 1.091 1.703 2.858.22 2.916.243 7.308.243 10.36 0 4.801-.17 7.356-.321 8.373-.153 1.031-1.119 2.266-1.646 2.688-.391.431-2.915.279-3.744.022z"/></svg>