<svg xmlns="http://www.w3.org/2000/svg" width="842" height="492"><path fill-rule="evenodd" d="M840.2 455.5V468s-12.015 4.979-25.042 7.475c-15.622 2.993-53.662 4.096-69.625 4.096-15.963 0-385.174-.206-652.721-.206-11.608 0-47.736-1.086-54.949-2.148-7.813-1.15-29.67-4.959-36.563-9.717v-12h80.581c-.072-1.598-.842-2.798-.842-4.821 0-2.022-.125-419.541-.125-424.628 0-5.088.314-11.673 5.407-17.593 6.185-7.191 19.673-6.753 25.396-6.753-158.168 0 411.672.045 614.082.045 11.038 0 19.568-1.109 27.551 5.167 8.453 6.646 7.15 16.945 7.15 23.554 0 6.609.072 410.62.072 416.401 0 5.782-.836 7.62-1.314 8.592 26.83 0 80.942.036 80.942.036z"/></svg>