<svg xmlns="http://www.w3.org/2000/svg" width="532" height="510"><path fill-rule="evenodd" d="M26.499 299.695c16.802-2.062 30.423 9.408 34.685 19.312 1.021 2.903 1.742 5.885 2.03 8.084C78.379 342.923 93.835 359.168 109 375c4.258 4.353 20.363 21.265 21.971 23.06 1.464 1.634 1.129 3.577 1.154 3.904-.158 1.57-6.226 8.363-10.635 11.625-1.43 1.058-3.25.852-4.735.426-20.664-21.331-41.241-42.455-61.906-63.786-11.174 8.021-24.037 8.422-34.091 2.466-11.34-6.719-18.552-21.71-13.42-36.453 3.663-10.525 12.911-15.809 19.161-16.547z"/></svg>