<svg xmlns="http://www.w3.org/2000/svg" width="900" height="652"><path fill-rule="evenodd" d="M2.402 92.257L.96 92.119V48.452s1.095.095 1.906 0c0-2.386.118-20.098 13.085-32.53C28.917 3.49 44.429 2.58 47.597 2.58H72.91V1.092h36.295v1.409h7.363V.942h36.306v1.534h700.811c2.533 0 22.643 2.098 33.789 15.521 11.146 13.423 11.215 27.016 11.215 29.391v554.347c0 2.334.594 16.477-10.58 30.712-11.174 14.234-32.105 16.516-35.479 16.516H48.93c-2.838 0-18.03-.465-31.59-12.298-13.56-11.833-14.887-30.296-14.887-34.342L2.402 92.257z"/></svg>