<svg xmlns="http://www.w3.org/2000/svg" width="386" height="386"><path fill-rule="evenodd" d="M263.441 121.991c0 6.397.006 24.893.006 24.893s.386-.089.386.722c0 5.069-.316 23.197-.316 37.918 0 .682-.383.635-.383 1.079 0 2.033-.357 10.641-2.876 16.628-3.591 8.536-9.003 12.219-11.131 13.857-4.087 3.145-9.031 6.989-11.957 13.78-1.443 3.348-3.092 10.199-3.812 16.262-.942 7.926-1.04 15.087-4.401 17.429-4.707 3.278-21.389 5.152-36.695 5.124-17.583-.033-38.741-3.27-40.101-7.314-1.172-3.484-2.053-13.529-3.398-21.747-.635-3.872-1.865-7.362-2.699-9.393-2.158-5.26-5.24-9.791-8.866-12.055-3.756-2.345-9.607-6.156-13.349-14.317-2.982-6.504-4.331-14.82-4.331-24.63 0-20.775-.137-67.778-.093-71.812 0-4.887.156-22.618 3.497-30.744 3.108-7.559 7.421-11.913 14.181-15.97 2.792-1.676 6.445-6.882 8.229-9.809 4.575-7.509 5.811-27.724 6.175-30.4.455-3.336 5.197-6.856 11.315-7.914 6.785-1.174 16.244-2.198 26.081-2.096 14.629.153 25.856.669 33.62 2.69 5.491 1.43 8.377 3.977 8.897 6.74.57 3.029 1.952 12.665 2.783 17.435 1.619 9.296 3.36 12.958 7.654 19.424 1.038 1.563 7.022 5.295 9.789 7.843 3.913 3.604 7.608 7.329 10.338 18.017.714 2.795.985 6.958.985 10.672 1.603-.25 2.867-.186 4.751.069.546.146 1.785 1.24 1.936 3.248.25 3.314.275 8.307.275 11.776 0 5.456-.192 8.359-.364 9.516-.174 1.171-1.271 2.574-1.871 3.054-.445.49-3.312.317-4.255.025z"/></svg>