<svg xmlns="http://www.w3.org/2000/svg" width="320" height="342"><path fill-rule="evenodd" d="M288.796 5.918c4.101-.064 8.034.686 11.368 2.309 3.846 1.872 6.765 5.138 8.431 8.964 1.897 4.358 1.556 10.04-.047 13.994-1.641 4.048-3.996 6.938-9.375 9.879-1.471.526-2.607.835-4.079 1.361-2.207 3.68-5.091 7.914-7.299 11.594-8.62 12.931-23.394 36.295-24.351 37.558-.344.454-1.46 1.417-3.202.799-1.353-.479-2.86-1.401-4.241-2.36-1.778-1.235-3.245-2.567-3.439-2.855-.539-.8-.993-2.266.077-3.692 7.464-11.775 21.345-32.531 28.809-44.306-7.022-5.614-11.193-15.6-8.783-20.969 1.217-2.711 4.583-9.012 7.096-10.533 2.166-1.055 5.804-1.759 9.035-1.743z"/></svg>