<svg xmlns="http://www.w3.org/2000/svg" width="386" height="386"><path fill-rule="evenodd" d="M352.053 5.078c4.681-.074 9.17.782 12.975 2.634 4.388 2.137 7.721 5.864 9.622 10.232 2.165 4.974 1.776 11.458-.054 15.971-1.873 4.62-4.56 7.919-10.699 11.275-1.68.6-2.976.953-4.656 1.553-2.52 4.2-5.811 9.033-8.33 13.232-9.839 14.759-26.701 41.426-27.792 42.866-.394.519-1.667 1.617-3.656.913-1.544-.547-3.264-1.599-4.84-2.694-2.029-1.41-3.704-2.93-3.925-3.259-.615-.913-1.133-2.586.088-4.213 8.519-13.439 23.981-36.938 32.5-50.377-6.138-4.829-12.965-17.995-10.214-24.123 1.389-3.094 5.801-10.285 8.669-12.021 2.472-1.204 6.624-2.009 10.312-1.989z"/></svg>