<svg xmlns="http://www.w3.org/2000/svg" width="532" height="510"><path fill-rule="evenodd" d="M362.524 168.279c0 8.884.008 34.574.008 34.574s.537-.124.537 1.002c0 7.041-.439 32.218-.439 52.665 0 .946-.533.882-.533 1.498 0 2.824-.496 14.779-3.994 23.096-4.987 11.855-12.504 16.971-15.459 19.245-5.677 4.368-12.543 9.707-16.607 19.139-2.004 4.65-4.295 14.165-5.295 22.586-1.308 11.008-1.445 20.955-6.113 24.207-6.537 4.553-29.707 7.157-50.966 7.117-24.42-.046-53.807-4.541-55.695-10.158-1.628-4.839-2.852-18.791-4.721-30.204-.88-5.379-2.59-10.226-3.747-13.046-2.998-7.307-7.279-13.6-12.315-16.744-5.217-3.257-13.343-8.549-18.54-19.884-4.141-9.034-6.015-20.584-6.015-34.209 0-28.855-.19-94.138-.13-99.74 0-6.788.218-31.415 4.858-42.7 4.316-10.499 10.307-16.546 19.695-22.181 3.879-2.328 8.952-9.558 11.429-13.624 6.355-10.429 8.071-38.506 8.578-42.222.631-4.633 7.217-9.522 15.714-10.992 9.424-1.631 22.561-3.053 36.225-2.911 20.317.212 35.91.928 46.694 3.736 7.627 1.986 11.636 5.523 12.358 9.361.791 4.208 2.71 17.59 3.864 24.215 2.249 12.912 4.668 17.998 10.631 26.978 1.441 2.172 9.753 7.355 13.596 10.894 5.435 5.005 10.566 10.179 14.358 25.023.992 3.883 1.368 9.664 1.368 14.823 2.227-.347 3.983-.258 6.599.096.759.202 2.479 1.722 2.689 4.511.347 4.603.383 11.537.383 16.355 0 7.578-.268 11.61-.506 13.217-.242 1.627-1.766 3.576-2.599 4.242-.618.681-4.601.44-5.91.035z"/></svg>
