<svg xmlns="http://www.w3.org/2000/svg" width="532" height="510"><path fill-rule="evenodd" d="M485.598 5.898c6.501-.103 12.735 1.086 18.02 3.659 6.096 2.968 10.724 8.145 13.364 14.21 3.007 6.908 2.467 15.914-.075 22.183-2.601 6.416-6.333 10.998-14.86 15.66-2.333.833-4.133 1.324-6.466 2.157-3.499 5.833-8.07 12.546-11.57 18.378-13.665 20.498-37.084 57.536-38.601 59.537-.546.72-2.315 2.246-5.076 1.267-2.145-.76-4.534-2.221-6.723-3.742-2.818-1.958-5.144-4.069-5.451-4.526-.854-1.268-1.574-3.591.121-5.852 11.832-18.664 33.308-51.303 45.14-69.968-8.525-6.707-18.006-24.994-14.186-33.504 1.929-4.298 8.056-14.285 12.04-16.697 3.434-1.672 9.201-2.789 14.323-2.762z"/></svg>