<svg xmlns="http://www.w3.org/2000/svg" width="320" height="342"><path fill-rule="evenodd" d="M19.628 191.805c10.656-1.308 19.296 5.966 21.999 12.248.647 1.841 1.104 3.732 1.287 5.128 9.618 10.041 19.421 20.344 29.039 30.385 2.701 2.761 12.916 13.487 13.935 14.625.929 1.037.716 2.269.732 2.476-.1.996-3.948 5.305-6.745 7.373-.907.672-2.061.541-3.003.271-13.106-13.529-26.157-27.127-39.263-40.656-7.087 5.088-15.145 5.242-21.522 1.464-7.192-4.261-11.866-13.469-8.612-22.82 2.324-6.675 8.189-10.027 12.153-10.494z"/></svg>